name Walk8_EMG.mot
datacolumns 17
datarows 33
range 3.38700000 3.41900000
endheader
                time	            vasmed_r	            vaslat_r	            recfem_r	               gra_r	               sar_r	            tibant_r	           perlong_r	            addmag_r	           semimem_r	          bicfemlh_r	            gasmed_r	            gaslat_r	               sol_r	               tfl_r	              gmed_r	              gmax_r	
          3.38700000	          0.05626656	          0.09542049	          0.12367717	          0.28315990	          0.56745182	          0.23634616	          0.00879528	          0.21724677	          0.31668947	          0.22103184	          0.28510269	          0.08661787	          0.03112884	          0.14064174	          0.10360823	          0.15859149	
          3.38800000	          0.05653863	          0.09521088	          0.12330792	          0.29031811	          0.57210889	          0.22782371	          0.00872813	          0.21991884	          0.32184617	          0.22476043	          0.27084891	          0.08557098	          0.03092456	          0.14045861	          0.10464630	          0.15832851	
          3.38900000	          0.05681938	          0.09496177	          0.12299245	          0.29776773	          0.57630363	          0.21924589	          0.00865876	          0.22255725	          0.32700409	          0.22857345	          0.25702971	          0.08450894	          0.03072492	          0.14016905	          0.10566901	          0.15803884	
          3.39000000	          0.05710660	          0.09467268	          0.12273269	          0.30550777	          0.58001406	          0.21063362	          0.00858718	          0.22516197	          0.33216929	          0.23246580	          0.24365456	          0.08343399	          0.03053091	          0.13977795	          0.10667256	          0.15772721	
          3.39100000	          0.05739812	          0.09434415	          0.12253068	          0.31352717	          0.58322233	          0.20200760	          0.00851341	          0.22773493	          0.33734982	          0.23643468	          0.23073046	          0.08234817	          0.03034340	          0.13929068	          0.10765333	          0.15739810	
          3.39200000	          0.05769219	          0.09397753	          0.12238768	          0.32180601	          0.58591432	          0.19338817	          0.00843748	          0.23028051	          0.34255329	          0.24047954	          0.21826244	          0.08125327	          0.03016329	          0.13871242	          0.10860830	          0.15705699	
          3.39300000	          0.05798780	          0.09357417	          0.12230347	          0.33031830	          0.58807858	          0.18479526	          0.00835940	          0.23280425	          0.34778888	          0.24459982	          0.20625437	          0.08015102	          0.02999145	          0.13804799	          0.10953534	          0.15671096	
          3.39400000	          0.05828441	          0.09313522	          0.12227659	          0.33903651	          0.58970616	          0.17624834	          0.00827912	          0.23531027	          0.35306821	          0.24879205	          0.19470968	          0.07904341	          0.02982866	          0.13730218	          0.11043310	          0.15636784	
          3.39500000	          0.05858135	          0.09266195	          0.12230569	          0.34793510	          0.59079272	          0.16776651	          0.00819667	          0.23779987	          0.35840308	          0.25304941	          0.18363125	          0.07793282	          0.02967555	          0.13648029	          0.11130085	          0.15603532	
          3.39600000	          0.05887753	          0.09215631	          0.12239083	          0.35699027	          0.59134073	          0.15936836	          0.00811214	          0.24027185	          0.36380371	          0.25736264	          0.17302083	          0.07682202	          0.02953267	          0.13558877	          0.11213812	          0.15572090	
          3.39700000	          0.05917141	          0.09162080	          0.12253354	          0.36617729	          0.59135849	          0.15107175	          0.00802578	          0.24272309	          0.36927896	          0.26172063	          0.16287864	          0.07571424	          0.02940035	          0.13463541	          0.11294428	          0.15543175	
          3.39800000	          0.05946105	          0.09105847	          0.12273585	          0.37546886	          0.59085690	          0.14289379	          0.00793792	          0.24514943	          0.37483640	          0.26611108	          0.15320347	          0.07461296	          0.02927866	          0.13362924	          0.11371835	          0.15517417	
          3.39900000	          0.05974411	          0.09047302	          0.12300013	          0.38483594	          0.58984660	          0.13485099	          0.00784901	          0.24754639	          0.38048162	          0.27052189	          0.14399287	          0.07352143	          0.02916746	          0.13258045	          0.11445878	          0.15495309	
          3.40000000	          0.06001787	          0.08986900	          0.12332937	          0.39424952	          0.58833725	          0.12695942	          0.00775949	          0.24990864	          0.38621810	          0.27494191	          0.13524354	          0.07244234	          0.02906642	          0.13150061	          0.11516396	          0.15477198	
          3.40100000	          0.06027928	          0.08925146	          0.12372694	          0.40368137	          0.58633843	          0.11923462	          0.00766989	          0.25222910	          0.39204637	          0.27936156	          0.12695148	          0.07137781	          0.02897509	          0.13040343	          0.11583295	          0.15463343	
          3.40200000	          0.06052509	          0.08862518	          0.12419542	          0.41310386	          0.58386178	          0.11169123	          0.00758078	          0.25449889	          0.39796234	          0.28377389	          0.11911177	          0.07032957	          0.02889288	          0.12930490	          0.11646560	          0.15453930	
          3.40300000	          0.06075206	          0.08799413	          0.12473583	          0.42248861	          0.58092285	          0.10434277	          0.00749278	          0.25670840	          0.40395749	          0.28817428	          0.11171866	          0.06929908	          0.02881910	          0.12822167	          0.11706194	          0.15449026	
          3.40400000	          0.06095738	          0.08736138	          0.12534742	          0.43180467	          0.57754040	          0.09720167	          0.00740651	          0.25884904	          0.41002067	          0.29255910	          0.10476599	          0.06828757	          0.02875301	          0.12716948	          0.11762191	          0.15448536	
          3.40500000	          0.06113900	          0.08672942	          0.12602793	          0.44101776	          0.57373432	          0.09027937	          0.00732246	          0.26091464	          0.41613927	          0.29692489	          0.09824715	          0.06729615	          0.02869384	          0.12616340	          0.11814540	          0.15452249	
          3.40600000	          0.06129607	          0.08610064	          0.12677392	          0.45009154	          0.56952432	          0.08358638	          0.00724113	          0.26290061	          0.42229885	          0.30126788	          0.09215459	          0.06632588	          0.02864080	          0.12521825	          0.11863220	          0.15459944	
          3.40700000	          0.06142906	          0.08547789	          0.12758113	          0.45898998	          0.56492982	          0.07713217	          0.00716298	          0.26480300	          0.42848174	          0.30558465	          0.08647960	          0.06537790	          0.02859305	          0.12434740	          0.11908234	          0.15471496	
          3.40800000	          0.06153945	          0.08486464	          0.12844480	          0.46767836	          0.55997087	          0.07092524	          0.00708848	          0.26662028	          0.43466646	          0.30987449	          0.08121250	          0.06445360	          0.02854966	          0.12356141	          0.11949665	          0.15486892	
          3.40900000	          0.06162959	          0.08426501	          0.12936005	          0.47612284	          0.55466962	          0.06497317	          0.00701807	          0.26835633	          0.44082919	          0.31414106	          0.07634287	          0.06355464	          0.02850968	          0.12286828	          0.11987637	          0.15506095	
          3.41000000	          0.06170278	          0.08368340	          0.13032182	          0.48429073	          0.54905102	          0.05928250	          0.00695205	          0.27002012	          0.44694717	          0.31839104	          0.07185997	          0.06268258	          0.02847210	          0.12227461	          0.12022223	          0.15528896	
          3.41100000	          0.06176318	          0.08312423	          0.13132453	          0.49215249	          0.54314168	          0.05385858	          0.00689061	          0.27162207	          0.45300183	          0.32263232	          0.06775320	          0.06183868	          0.02843597	          0.12178646	          0.12053420	          0.15554957	
          3.41200000	          0.06181512	          0.08259166	          0.13236221	          0.49968483	          0.53696760	          0.04870565	          0.00683385	          0.27317128	          0.45898043	          0.32687451	          0.06401271	          0.06102411	          0.02840066	          0.12140888	          0.12081191	          0.15583940	
          3.41300000	          0.06186263	          0.08208931	          0.13342886	          0.50687245	          0.53055274	          0.04382698	          0.00678181	          0.27467487	          0.46487560	          0.33112920	          0.06062974	          0.06024021	          0.02836586	          0.12114511	          0.12105455	          0.15615542	
          3.41400000	          0.06190953	          0.08162050	          0.13451824	          0.51370536	          0.52391922	          0.03922494	          0.00673441	          0.27613848	          0.47068218	          0.33540696	          0.05759649	          0.05948853	          0.02833149	          0.12099620	          0.12126074	          0.15649429	
          3.41500000	          0.06195952	          0.08118863	          0.13562355	          0.52017566	          0.51708885	          0.03490093	          0.00669152	          0.27756816	          0.47639577	          0.33971456	          0.05490525	          0.05877075	          0.02829751	          0.12096143	          0.12142863	          0.15685191	
          3.41600000	          0.06201598	          0.08079725	          0.13673756	          0.52627913	          0.51008461	          0.03085539	          0.00665287	          0.27897243	          0.48201526	          0.34405533	          0.05254750	          0.05808864	          0.02826393	          0.12103860	          0.12155648	          0.15722340	
          3.41700000	          0.06208148	          0.08044964	          0.13785282	          0.53201797	          0.50293090	          0.02708785	          0.00661815	          0.28036231	          0.48754455	          0.34843107	          0.05051361	          0.05744402	          0.02823084	          0.12122452	          0.12164289	          0.15760404	
          3.41800000	          0.06215750	          0.08014832	          0.13896159	          0.53739914	          0.49565221	          0.02359688	          0.00658697	          0.28174887	          0.49299326	          0.35284267	          0.04879335	          0.05683885	          0.02819847	          0.12151550	          0.12168697	          0.15799062	
          3.41900000	          0.06224445	          0.07989480	          0.14005554	          0.54242924	          0.48827156	          0.02038016	          0.00655887	          0.28314080	          0.49837887	          0.35729015	          0.04737676	          0.05627522	          0.02816714	          0.12190755	          0.12168863	          0.15838139	
